HIERARCHY
ROOT Hips
{
	OFFSET 0.000000 0.000000 0.000000
	CHANNELS 6 Xposition Yposition Zposition Zrotation Yrotation Xrotation 
	JOINT LHipJoint
	{
		OFFSET 0.000000 0.000000 0.000000
		CHANNELS 3 Zrotation Yrotation Xrotation
		JOINT LeftUpLeg
		{
			OFFSET 1.363060 -1.794630 0.839290
			CHANNELS 3 Zrotation Yrotation Xrotation
			JOINT LeftLeg
			{
				OFFSET 2.448110 -6.726130 0.000000
				CHANNELS 3 Zrotation Yrotation Xrotation
				JOINT LeftFoot
				{
					OFFSET 2.562200 -7.039590 0.000000
					CHANNELS 3 Zrotation Yrotation Xrotation
					JOINT LeftToeBase
					{
						OFFSET 0.157640 -0.433110 2.322550
						CHANNELS 3 Zrotation Yrotation Xrotation
						End Site
						{
							OFFSET 0.000000 0.000000 0.000000
						}
					}
				}
			}
		}
	}
	JOINT RHipJoint
	{
		OFFSET 0.000000 0.000000 0.000000
		CHANNELS 3 Zrotation Yrotation Xrotation
		JOINT RightUpLeg
		{
			OFFSET -1.305520 -1.794630 0.839290
			CHANNELS 3 Zrotation Yrotation Xrotation
			JOINT RightLeg
			{
				OFFSET -2.542530 -6.985550 0.000000
				CHANNELS 3 Zrotation Yrotation Xrotation
				JOINT RightFoot
				{
					OFFSET -2.568260 -7.056230 0.000000
					CHANNELS 3 Zrotation Yrotation Xrotation
					JOINT RightToeBase
					{
						OFFSET -0.164730 -0.452590 2.363150
						CHANNELS 3 Zrotation Yrotation Xrotation
						End Site
						{
							OFFSET 0.000000 0.000000 0.000000
						}
					}
				}
			}
		}
	}
	JOINT LowerBack
	{
		OFFSET 0.000000 0.000000 0.000000
		CHANNELS 3 Zrotation Yrotation Xrotation
		JOINT Spine
		{
			OFFSET 0.028270 2.035590 -0.193380
			CHANNELS 3 Zrotation Yrotation Xrotation
			JOINT Spine1
			{
				OFFSET 0.056720 2.048850 -0.042750
				CHANNELS 3 Zrotation Yrotation Xrotation
				JOINT Neck
				{
					OFFSET 0.000000 0.000000 0.000000
					CHANNELS 3 Zrotation Yrotation Xrotation
					JOINT Neck1
					{
						OFFSET -0.054170 1.746240 0.172020
						CHANNELS 3 Zrotation Yrotation Xrotation
						JOINT Head
						{
							OFFSET 0.104070 1.761360 -0.123970
							CHANNELS 3 Zrotation Yrotation Xrotation
							End Site
							{
								OFFSET 0.000000 0.000000 0.000000
							}
						}
					}
				}
				JOINT LeftShoulder
				{
					OFFSET 0.000000 0.000000 0.000000
					CHANNELS 3 Zrotation Yrotation Xrotation
					JOINT LeftArm
					{
						OFFSET 3.362410 1.200890 -0.311210
						CHANNELS 3 Zrotation Yrotation Xrotation
						JOINT LeftForeArm
						{
							OFFSET 4.983000 -0.000000 -0.000000
							CHANNELS 3 Zrotation Yrotation Xrotation
							JOINT LeftHand
							{
								OFFSET 3.483560 -0.000000 -0.000000
								CHANNELS 3 Zrotation Yrotation Xrotation
								JOINT LeftFingerBase
								{
									OFFSET 0.000000 0.000000 0.000000
									CHANNELS 3 Zrotation Yrotation Xrotation
									JOINT LeftHandIndex1
									{
										OFFSET 0.715260 -0.000000 -0.000000
										CHANNELS 3 Zrotation Yrotation Xrotation
										End Site
										{
											OFFSET 0.000000 0.000000 0.000000
										}
									}
								}
								JOINT LThumb
								{
									OFFSET 0.000000 0.000000 0.000000
									CHANNELS 3 Zrotation Yrotation Xrotation
									End Site
									{
										OFFSET 0.000000 0.000000 0.000000
									}
								}
							}
						}
					}
				}
				JOINT RightShoulder
				{
					OFFSET 0.000000 0.000000 0.000000
					CHANNELS 3 Zrotation Yrotation Xrotation
					JOINT RightArm
					{
						OFFSET -3.136600 1.374050 -0.404650
						CHANNELS 3 Zrotation Yrotation Xrotation
						JOINT RightForeArm
						{
							OFFSET -5.241900 -0.000000 -0.000000
							CHANNELS 3 Zrotation Yrotation Xrotation
							JOINT RightHand
							{
								OFFSET -3.444170 -0.000000 -0.000000
								CHANNELS 3 Zrotation Yrotation Xrotation
								JOINT RightFingerBase
								{
									OFFSET 0.000000 0.000000 0.000000
									CHANNELS 3 Zrotation Yrotation Xrotation
									JOINT RightHandIndex1
									{
										OFFSET -0.622530 -0.000000 -0.000000
										CHANNELS 3 Zrotation Yrotation Xrotation
										End Site
										{
											OFFSET 0.000000 0.000000 0.000000
										}
									}
								}
								JOINT RThumb
								{
									OFFSET 0.000000 0.000000 0.000000
									CHANNELS 3 Zrotation Yrotation Xrotation
									End Site
									{
										OFFSET 0.000000 0.000000 0.000000
									}
								}
							}
						}
					}
				}
			}
		}
	}
}
MOTION
Frames: 4
Frame Time: 0.008333
9.839549 17.597105 3.188749 -5.012905 -3.530771 3.544795 3.439826 1.895497 0.343401 -16.299449 -6.378230 -33.599798 3.298569 13.182616 38.322889 0.217379 -0.412177 -7.563316 2.292500 -9.450600 -27.215100 -5.813153 -3.771649 -0.584688 33.822487 -5.652373 -2.012810 -1.341654 -6.065813 21.157595 -2.112076 15.132410 -14.335512 -0.213900 -2.977300 8.215600 8.106705 1.112572 5.180554 1.454377 1.455073 -3.512475 -4.042260 1.177244 -4.682964 8.332938 7.165032 -2.855274 0.638621 8.744314 5.668782 -8.933400 4.230000 1.411400 -6.340991 -6.209644 1.273089 -82.999357 18.210709 26.848235 11.865674 -14.836552 -1.813737 -0.712507 -1.441379 -5.111583 20.834897 20.844111 8.535900 -7.125000 0.000000 0.000000 -7.544500 53.515600 -1.587000 12.247134 7.397691 2.473341 71.972834 7.758452 32.395848 -14.522991 17.501349 -3.199470 -1.177736 -0.637253 13.698176 -18.676653 17.002046 -5.645300 7.125000 0.000000 0.000000 6.783500 -11.197900 5.375800
9.842958 17.594578 3.283739 -4.819139 -3.679380 3.591019 3.393477 1.881979 0.331134 -16.428788 -6.513114 -33.486714 2.896898 12.721426 36.690811 0.157007 0.406308 -7.592064 2.520873 -9.867582 -28.556016 -5.772438 -3.770400 -0.597551 33.459424 -5.833551 -1.469556 -1.276946 -5.877313 20.649148 -2.105691 15.195974 -14.229583 -0.185169 -2.765800 7.627825 7.926253 1.175333 5.140003 1.416669 1.523048 -3.513224 -4.087274 1.213699 -4.667597 8.284405 7.152869 -2.850207 0.684645 8.719348 5.680822 -8.892516 4.220797 1.399011 -6.355116 -6.204095 1.269516 -82.990517 18.370836 26.561404 11.757086 -14.681501 -1.774413 -0.719847 -1.424165 -4.615502 20.782349 20.784899 8.486049 -7.125000 0.000000 0.000000 -7.579485 53.432770 -1.578977 12.222508 7.395769 2.479264 72.043279 8.014306 32.230768 -14.548120 17.523196 -3.219038 -1.188276 -0.645463 13.870078 -18.857145 17.172777 -5.762289 7.125000 0.000000 0.000000 6.677190 -10.982683 5.319636
9.846027 17.592014 3.378586 -4.652682 -3.835073 3.636124 3.346538 1.868449 0.319870 -16.515071 -6.641397 -33.374240 2.504698 12.255695 35.064733 0.100607 1.147213 -7.617274 2.697322 -10.187896 -29.587674 -5.735813 -3.768260 -0.609256 33.136712 -5.973888 -0.910157 -1.210681 -5.685112 20.132455 -2.092336 15.250063 -14.079780 -0.178640 -2.714731 7.486080 7.763171 1.232861 5.118335 1.384419 1.587492 -3.517562 -4.122601 1.247993 -4.677606 8.260140 7.146326 -2.832855 0.706121 8.705794 5.687028 -8.872502 4.216595 1.389069 -6.365752 -6.200489 1.264875 -82.999838 18.532470 26.229042 11.647271 -14.523583 -1.735031 -0.725427 -1.408700 -4.155479 20.683533 20.731128 8.418853 -7.125000 0.000000 0.000000 -7.664540 53.348249 -1.580849 12.202043 7.397433 2.485122 72.100117 8.242910 32.171477 -14.599583 17.571776 -3.243603 -1.195744 -0.650162 13.970016 -18.998887 17.274700 -5.843492 7.125000 0.000000 0.000000 6.592235 -10.849742 5.269409
9.848320 17.589369 3.473106 -4.548462 -4.006913 3.678678 3.298256 1.854892 0.310893 -16.503223 -6.754635 -33.263156 2.134082 11.779612 33.452329 0.053255 1.711308 -7.634420 2.755433 -10.287894 -29.914510 -5.708510 -3.764090 -0.618319 32.905963 -6.021146 -0.313959 -1.140866 -5.484481 19.596968 -2.063094 15.282558 -13.829986 -0.222710 -3.029297 8.360870 7.639674 1.278461 5.139706 1.364609 1.643887 -3.530077 -4.135852 1.277365 -4.745448 8.291184 7.152591 -2.787506 0.671650 8.718251 5.679941 -8.900053 4.223792 1.384703 -6.368435 -6.201308 1.257801 -83.050551 18.697540 25.792909 11.534660 -14.359129 -1.695513 -0.726993 -1.397218 -3.777635 20.479266 20.689754 8.312130 -7.125000 0.000000 0.000000 -7.863710 53.259873 -1.605273 12.191061 7.407270 2.490836 72.125942 8.409407 32.353284 -14.711062 17.681285 -3.279557 -1.196209 -0.646859 13.905943 -19.052315 17.219803 -5.843138 7.125000 0.000000 0.000000 6.555953 -10.904313 5.232714
